<svg id="icons8-whatsapp" xmlns="http://www.w3.org/2000/svg" width="46.801" height="47" viewBox="0 0 46.801 47">
  <path id="Path_32" data-name="Path 32" d="M4.868,49.667,8.01,38.2A22.142,22.142,0,1,1,27.195,49.283h-.009a22.116,22.116,0,0,1-10.58-2.695Z" transform="translate(-3.701 -3.834)" fill="#fff" fill-rule="evenodd"/>
  <path id="Path_33" data-name="Path 33" d="M4.951,50.333a.583.583,0,0,1-.562-.736L7.466,38.36a22.721,22.721,0,1,1,9.148,8.934L5.1,50.313A.533.533,0,0,1,4.951,50.333Z" transform="translate(-3.784 -3.917)" fill="#fff" fill-rule="evenodd"/>
  <path id="Path_34" data-name="Path 34" d="M27.361,5.166a22.141,22.141,0,0,1,0,44.283h-.009a22.116,22.116,0,0,1-10.58-2.695L5.034,49.833,8.176,38.364a22.144,22.144,0,0,1,19.185-33.2m0,44.283h0m0,0h0M27.361,4h0A23.313,23.313,0,0,0,6.923,38.519L3.909,49.526A1.166,1.166,0,0,0,5.33,50.962L16.627,48A23.309,23.309,0,1,0,27.361,4Z" transform="translate(-3.868 -4)" fill="#cfd8dc" fill-rule="evenodd"/>
  <path id="Path_35" data-name="Path 35" d="M39.652,13.6A18.4,18.4,0,0,0,11.046,36.392l.438.7-1.86,6.788L16.59,42.05l.673.4a18.367,18.367,0,0,0,9.366,2.564h.007A18.4,18.4,0,0,0,39.652,13.6Z" transform="translate(-3.142 -3.301)" fill="#40c351" fill-rule="evenodd"/>
  <path id="Path_36" data-name="Path 36" d="M20.083,16.183c-.414-.921-.85-.94-1.245-.956-.323-.014-.692-.013-1.06-.013a2.033,2.033,0,0,0-1.475.693,6.2,6.2,0,0,0-1.937,4.613c0,2.722,1.982,5.353,2.259,5.721s3.827,6.133,9.45,8.351c4.673,1.842,5.624,1.476,6.639,1.384s3.273-1.338,3.734-2.63a4.633,4.633,0,0,0,.323-2.63c-.139-.231-.507-.368-1.06-.646s-3.273-1.615-3.781-1.8-.876-.276-1.245.278-1.429,1.8-1.752,2.168-.646.416-1.2.139a15.143,15.143,0,0,1-4.449-2.745,16.668,16.668,0,0,1-3.077-3.831c-.323-.553-.035-.852.243-1.129.248-.248.553-.646.83-.969a3.784,3.784,0,0,0,.553-.922,1.017,1.017,0,0,0-.047-.969C21.65,20.013,20.575,17.277,20.083,16.183Z" transform="translate(-2.124 -2.137)" fill="#fff" fill-rule="evenodd"/>
</svg>
