<svg id="icons8-youtube" xmlns="http://www.w3.org/2000/svg" width="46.762" height="34.984" viewBox="0 0 46.762 34.984">
  <path id="Path_26" data-name="Path 26" d="M49.713,38.037a5.823,5.823,0,0,1-4.9,4.665,121.368,121.368,0,0,1-17.492,1.283A124.256,124.256,0,0,1,9.831,42.7a5.823,5.823,0,0,1-4.9-4.665A68.254,68.254,0,0,1,4,26.492a68.253,68.253,0,0,1,.933-11.545,5.823,5.823,0,0,1,4.9-4.665A121.367,121.367,0,0,1,27.323,9a122.8,122.8,0,0,1,17.492,1.283,5.823,5.823,0,0,1,4.9,4.665,66.155,66.155,0,0,1,1.05,11.545A80.086,80.086,0,0,1,49.713,38.037Z" transform="translate(-4 -9)" fill="#ff3d00"/>
  <path id="Path_27" data-name="Path 27" d="M20,33.326V17l13.994,8.163Z" transform="translate(-1.342 -7.671)" fill="#fff"/>
</svg>
