<svg id="icons8-telegram-app" xmlns="http://www.w3.org/2000/svg" width="46.646" height="46.646" viewBox="0 0 46.646 46.646">
  <path id="Path_37" data-name="Path 37" d="M27.323,4A23.323,23.323,0,1,0,50.646,27.323,23.323,23.323,0,0,0,27.323,4Z" transform="translate(-4 -4)" fill="#29b6f6"/>
  <path id="Path_38" data-name="Path 38" d="M37.929,15.166l-4.368,22.3a1.36,1.36,0,0,1-1.452,1.019,1.56,1.56,0,0,1-1.018-.32l-9.462-7.852L17,27.984,11.058,26.4S10,26.1,10,25.224c0-.729,1.088-1.076,1.088-1.076l24.857-9.875A4.749,4.749,0,0,1,37.258,14c.341,0,.729.146.729.583A3.409,3.409,0,0,1,37.929,15.166Z" transform="translate(-3.003 -2.339)" fill="#fff"/>
  <path id="Path_39" data-name="Path 39" d="M23.663,30.923l-4,3.935a.762.762,0,0,1-.406.14.576.576,0,0,1-.255-.05l1.124-6.956Z" transform="translate(-1.507 -0.014)" fill="#b0bec5"/>
  <path id="Path_40" data-name="Path 40" d="M32.206,18.229a.583.583,0,0,0-.817-.108L16,27.329s2.456,6.871,2.83,8.06.676,1.219.676,1.219l1.124-6.956L32.1,19.045A.582.582,0,0,0,32.206,18.229Z" transform="translate(-2.006 -1.674)" fill="#cfd8dc"/>
</svg>
