<svg id="icons8-linkedin" xmlns="http://www.w3.org/2000/svg" width="41.981" height="41.981" viewBox="0 0 41.981 41.981">
  <path id="Path_28" data-name="Path 28" d="M47.981,42.15a5.83,5.83,0,0,1-5.831,5.831H11.831A5.831,5.831,0,0,1,6,42.15V11.831A5.831,5.831,0,0,1,11.831,6H42.15a5.83,5.83,0,0,1,5.831,5.831Z" transform="translate(-6 -6)" fill="#0078d4"/>
  <path id="Path_29" data-name="Path 29" d="M33.157,41.32V29.543c0-1.97-.955-3.146-2.556-3.146a2.179,2.179,0,0,0-2.075,1.591,7.824,7.824,0,0,0-.036,1.3l0,12.033H20.329V19.163h8.163V20.4a7.509,7.509,0,0,1,4.359-1.237c5.3,0,8.467,3.607,8.467,9.649V41.32ZM11,41.32V19.163h4.031A3.924,3.924,0,0,1,11,15.08,3.955,3.955,0,0,1,15.1,11a3.939,3.939,0,0,1,4.065,4.057,3.966,3.966,0,0,1-4.1,4.106h4.1V41.32Z" transform="translate(-5.169 -5.169)" opacity="0.05"/>
  <path id="Path_30" data-name="Path 30" d="M33.657,40.653V29.46c0-2.3-1.2-3.729-3.139-3.729A2.78,2.78,0,0,0,27.9,27.686a7.358,7.358,0,0,0-.078,1.546l0,11.421h-7V19.663h7v1.91a6.488,6.488,0,0,1,4.942-1.91c4.936,0,7.884,3.389,7.884,9.066V40.653Zm-22.157,0V19.663h7v20.99ZM14.948,18.5A3.36,3.36,0,0,1,11.5,15a3.391,3.391,0,0,1,3.515-3.5A3.378,3.378,0,0,1,18.5,14.986,3.4,3.4,0,0,1,14.981,18.5Z" transform="translate(-5.086 -5.086)" opacity="0.07"/>
  <path id="Path_31" data-name="Path 31" d="M12,20.163h5.831V39.987H12Zm2.9-2.332h-.033A2.79,2.79,0,0,1,12,14.914,2.805,2.805,0,0,1,14.932,12a2.8,2.8,0,0,1,2.9,2.914A2.807,2.807,0,0,1,14.9,17.831ZM39.987,39.987H34.157V29.377c0-2.563-1.429-4.312-3.722-4.312a3.343,3.343,0,0,0-3.157,2.321,8.411,8.411,0,0,0-.118,2.107v10.5H21.329V20.163H27.16v3.051a5.9,5.9,0,0,1,5.525-3.051c4.172,0,7.3,2.624,7.3,8.482V39.987Z" transform="translate(-5.003 -5.003)" fill="#fff"/>
</svg>
