<svg xmlns="http://www.w3.org/2000/svg" width="41.984" height="33.818" viewBox="0 0 41.984 33.818">
  <path id="icons8-twitter" d="M47.981,13a17.466,17.466,0,0,1-4.953,1.355A8.605,8.605,0,0,0,46.82,9.622a17.292,17.292,0,0,1-5.473,2.071,8.591,8.591,0,0,0-14.669,7.791A24.547,24.547,0,0,1,8.925,10.558a8.432,8.432,0,0,0-1.166,4.3,8.518,8.518,0,0,0,3.831,7.109A8.77,8.77,0,0,1,7.684,20.9V21a8.563,8.563,0,0,0,6.907,8.374,8.566,8.566,0,0,1-2.263.307,9.152,9.152,0,0,1-1.623-.157,8.629,8.629,0,0,0,8.044,5.931,17.4,17.4,0,0,1-10.7,3.655A17.038,17.038,0,0,1,6,38.987,24.616,24.616,0,0,0,19.2,42.818c15.842,0,24.509-13.009,24.509-24.3,0-.37-.012-.738-.029-1.1A16.946,16.946,0,0,0,47.981,13" transform="translate(-5.997 -9)" fill="#03a9f4"/>
</svg>
