<svg id="icons8-instagram" xmlns="http://www.w3.org/2000/svg" xmlns:xlink="http://www.w3.org/1999/xlink" width="42.003" height="42.003" viewBox="0 0 42.003 42.003">
  <defs>
    <radialGradient id="radial-gradient" cx="0.372" cy="1.001" r="1.247" gradientUnits="objectBoundingBox">
      <stop offset="0" stop-color="#fd5"/>
      <stop offset="0.328" stop-color="#ff543f"/>
      <stop offset="0.348" stop-color="#fc5245"/>
      <stop offset="0.504" stop-color="#e64771"/>
      <stop offset="0.643" stop-color="#d53e91"/>
      <stop offset="0.761" stop-color="#cc39a4"/>
      <stop offset="0.841" stop-color="#c837ab"/>
    </radialGradient>
    <radialGradient id="radial-gradient-2" cx="0.161" cy="-0.012" r="0.828" gradientTransform="translate(0 -0.004) scale(1 0.666)" gradientUnits="objectBoundingBox">
      <stop offset="0" stop-color="#4168c9"/>
      <stop offset="0.999" stop-color="#4168c9" stop-opacity="0"/>
    </radialGradient>
  </defs>
  <path id="Path_20" data-name="Path 20" d="M38.673,47.971l-23.323.022a9.357,9.357,0,0,1-9.338-9.32L5.99,15.351a9.357,9.357,0,0,1,9.32-9.338L38.633,5.99a9.357,9.357,0,0,1,9.338,9.32l.022,23.323A9.355,9.355,0,0,1,38.673,47.971Z" transform="translate(-5.99 -5.99)" fill="url(#radial-gradient)"/>
  <path id="Path_21" data-name="Path 21" d="M38.673,47.971l-23.323.022a9.357,9.357,0,0,1-9.338-9.32L5.99,15.351a9.357,9.357,0,0,1,9.32-9.338L38.633,5.99a9.357,9.357,0,0,1,9.338,9.32l.022,23.323A9.355,9.355,0,0,1,38.673,47.971Z" transform="translate(-5.99 -5.99)" fill="url(#radial-gradient-2)"/>
  <path id="Path_22" data-name="Path 22" d="M25.163,33.326a8.163,8.163,0,1,1,8.163-8.163A8.173,8.173,0,0,1,25.163,33.326Zm0-13.994a5.831,5.831,0,1,0,5.831,5.831A5.837,5.837,0,0,0,25.163,19.332Z" transform="translate(-4.161 -4.161)" fill="#fff"/>
  <ellipse id="Ellipse_3" data-name="Ellipse 3" cx="1.749" cy="1.749" rx="1.749" ry="1.749" transform="translate(27.999 10.507)" fill="#fff"/>
  <path id="Path_23" data-name="Path 23" d="M33.157,41.32H19.163A8.173,8.173,0,0,1,11,33.157V19.163A8.173,8.173,0,0,1,19.163,11H33.157a8.173,8.173,0,0,1,8.163,8.163V33.157A8.173,8.173,0,0,1,33.157,41.32ZM19.163,13.332a5.837,5.837,0,0,0-5.831,5.831V33.157a5.837,5.837,0,0,0,5.831,5.831H33.157a5.837,5.837,0,0,0,5.831-5.831V19.163a5.837,5.837,0,0,0-5.831-5.831Z" transform="translate(-5.158 -5.158)" fill="#fff"/>
</svg>
